<?xml version="1.0" encoding="utf-8"?>
<!-- Generator: Adobe Illustrator 23.0.5, SVG Export Plug-In . SVG Version: 6.00 Build 0)  -->
<svg version="1.1" id="Layer_1" xmlns="http://www.w3.org/2000/svg" xmlns:xlink="http://www.w3.org/1999/xlink" x="0px" y="0px"
	 viewBox="0 0 500 500" style="enable-background:new 0 0 500 500;" xml:space="preserve">
<style type="text/css">
	.st0{fill:#FFFFFF;}
	.st1{fill:#AF1F24;}
</style>
<g>
	<g>
		<path class="st0" d="M241.3,0h105v120.8h126.2v87.4H346.3v130.4c0,22.1,3.9,39.7,11.6,52.9c7.8,13.2,23.4,19.7,46.9,19.7
			c11.3,0,22.9-1.1,34.9-3.2c12-2.1,22.9-5,32.8-8.8l14.8,81.7c-12.7,5.2-26.8,9.6-42.3,13.4c-15.5,3.8-34.5,5.6-57.1,5.6
			c-28.7,0-52.4-3.9-71.2-11.6c-18.8-7.8-33.8-18.6-45.1-32.4c-11.3-13.9-19.1-30.7-23.6-50.4c-4.5-19.7-6.7-41.6-6.7-65.5V0z"/>
		<circle class="st1" cx="99.7" cy="164.9" r="86.9"/>
	</g>
</g>
</svg>
