<?xml version="1.0" standalone="no"?>
<!DOCTYPE svg PUBLIC "-//W3C//DTD SVG 20010904//EN"
 "http://www.w3.org/TR/2001/REC-SVG-20010904/DTD/svg10.dtd">
<svg version="1.0" xmlns="http://www.w3.org/2000/svg"
 width="512.000000pt" height="512.000000pt" viewBox="0 0 512.000000 512.000000"
 preserveAspectRatio="xMidYMid meet">
<metadata>
Created by potrace 1.14, written by Peter Selinger 2001-2017
</metadata>
<g transform="translate(0.000000,512.000000) scale(0.100000,-0.100000)"
fill="#000000" stroke="none">
<path d="M2473 3228 c2 -1041 7 -1913 11 -1938 4 -25 14 -92 22 -150 9 -58 22
-132 30 -165 8 -33 16 -67 18 -75 42 -175 167 -398 297 -529 154 -156 397
-279 654 -330 149 -30 235 -36 505 -36 243 0 365 11 500 42 36 8 72 16 80 18
72 15 363 108 388 124 11 6 9 29 -7 117 -11 60 -23 123 -26 139 -2 17 -7 40
-9 51 -2 12 -7 37 -10 55 -3 19 -8 45 -10 59 -3 14 -10 52 -15 85 -6 33 -13
71 -16 85 -3 14 -12 63 -20 110 -21 117 -24 132 -29 137 -2 2 -39 -7 -82 -21
-86 -27 -179 -51 -234 -60 -132 -22 -192 -28 -325 -32 -330 -9 -486 72 -576
297 -26 65 -45 138 -53 199 -4 25 -9 63 -13 85 -4 30 -7 1165 -4 1447 l1 46
588 0 c323 0 613 1 645 1 l57 1 -2 448 -3 447 -642 0 c-566 0 -643 2 -644 15
0 8 -1 286 -1 618 l0 602 -539 0 -540 0 4 -1892z"/>
<path d="M987 4324 c-1 -1 -31 -4 -67 -8 -141 -13 -302 -75 -418 -161 -298
-219 -432 -581 -346 -934 79 -320 319 -565 641 -653 64 -17 106 -21 228 -21
134 0 160 3 238 27 289 87 505 292 600 567 33 95 47 182 47 295 0 81 -4 116
-24 213 -38 179 -168 374 -330 494 -156 116 -323 174 -524 181 -24 1 -44 1
-45 0z"/>
</g>
</svg>
